<svg xmlns="http://www.w3.org/2000/svg" viewBox="0 0 800 1000" preserveAspectRatio="xMidYMid slice" role="img" aria-label="Una biblioteca con estanterías llenas de libros y una lámpara encendida">
  <defs>
    <linearGradient id="bfondo" x1="0" y1="0" x2="0" y2="1">
      <stop offset="0%" stop-color="#3B2A22"/><stop offset="100%" stop-color="#241812"/>
    </linearGradient>
    <radialGradient id="luz" cx="50%" cy="50%" r="50%">
      <stop offset="0%" stop-color="#F2A81B" stop-opacity=".55"/>
      <stop offset="100%" stop-color="#F2A81B" stop-opacity="0"/>
    </radialGradient>
  </defs>

  <rect width="800" height="1000" fill="url(#bfondo)"/>

  <!-- estanterías -->
  <g>
    <rect x="40" y="90" width="720" height="620" rx="10" fill="#4A3529"/>
    <g fill="#3A2920">
      <rect x="58" y="108" width="684" height="12"/>
      <rect x="58" y="268" width="684" height="12"/>
      <rect x="58" y="428" width="684" height="12"/>
      <rect x="58" y="588" width="684" height="12"/>
    </g>
  </g>

  <!-- libros: cada balda con lomos de distinto alto y color -->
  <g id="libros">
    <g transform="translate(70,130)">
      <rect width="26" height="130" rx="4" fill="#E23A1B"/><rect x="32" width="20" height="130" rx="4" fill="#F2A81B"/>
      <rect x="58" y="14" width="30" height="116" rx="4" fill="#2F8FA3"/><rect x="94" width="18" height="130" rx="4" fill="#E8DCCB"/>
      <rect x="118" y="8" width="26" height="122" rx="4" fill="#2E8B57"/><rect x="150" width="22" height="130" rx="4" fill="#A72410"/>
      <rect x="178" y="18" width="28" height="112" rx="4" fill="#F2A81B"/><rect x="212" width="20" height="130" rx="4" fill="#2F8FA3"/>
      <rect x="238" y="6" width="24" height="124" rx="4" fill="#E8DCCB"/><rect x="268" width="30" height="130" rx="4" fill="#E23A1B"/>
    </g>
    <g transform="translate(430,140)">
      <rect width="22" height="120" rx="4" fill="#2E8B57"/><rect x="28" y="10" width="28" height="110" rx="4" fill="#E8DCCB"/>
      <rect x="62" width="20" height="120" rx="4" fill="#E23A1B"/><rect x="88" y="6" width="26" height="114" rx="4" fill="#2F8FA3"/>
      <rect x="120" width="24" height="120" rx="4" fill="#F2A81B"/><rect x="150" y="14" width="22" height="106" rx="4" fill="#A72410"/>
      <rect x="178" width="30" height="120" rx="4" fill="#E8DCCB"/><rect x="214" y="8" width="20" height="112" rx="4" fill="#2E8B57"/>
      <rect x="240" width="26" height="120" rx="4" fill="#2F8FA3"/>
    </g>
    <g transform="translate(80,300)">
      <rect width="24" height="122" rx="4" fill="#F2A81B"/><rect x="30" y="8" width="28" height="114" rx="4" fill="#E23A1B"/>
      <rect x="64" width="20" height="122" rx="4" fill="#2F8FA3"/><rect x="90" y="16" width="26" height="106" rx="4" fill="#E8DCCB"/>
      <rect x="122" width="22" height="122" rx="4" fill="#2E8B57"/><rect x="150" y="6" width="30" height="116" rx="4" fill="#A72410"/>
    </g>
    <g transform="translate(470,306)">
      <rect width="28" height="116" rx="4" fill="#E8DCCB"/><rect x="34" y="10" width="22" height="106" rx="4" fill="#2E8B57"/>
      <rect x="62" width="26" height="116" rx="4" fill="#F2A81B"/><rect x="94" y="6" width="20" height="110" rx="4" fill="#E23A1B"/>
      <rect x="120" width="24" height="116" rx="4" fill="#2F8FA3"/>
    </g>
    <g transform="translate(96,462)">
      <rect width="22" height="118" rx="4" fill="#2F8FA3"/><rect x="28" y="12" width="26" height="106" rx="4" fill="#F2A81B"/>
      <rect x="60" width="30" height="118" rx="4" fill="#E23A1B"/><rect x="96" y="8" width="20" height="110" rx="4" fill="#2E8B57"/>
    </g>
  </g>

  <!-- mesa con lámpara y libro abierto -->
  <rect x="0" y="710" width="800" height="290" fill="#5A4132"/>
  <rect x="0" y="710" width="800" height="16" fill="#6D4F3C"/>
  <ellipse cx="400" cy="800" rx="330" ry="190" fill="url(#luz)"/>
  <g transform="translate(560,600)">
    <rect x="28" y="108" width="12" height="104" fill="#1B1512"/>
    <rect x="-4" y="206" width="76" height="12" rx="6" fill="#1B1512"/>
    <path d="M-16 108 L84 108 L60 46 L8 46 Z" fill="#E23A1B"/>
  </g>
  <g transform="translate(180,690)">
    <path d="M0 40 q90 -32 180 0 v46 q-90 -30 -180 0 z" fill="#F7F1E6"/>
    <path d="M180 40 q90 -32 180 0 v46 q-90 -30 -180 0 z" fill="#EDE3D2"/>
    <line x1="180" y1="40" x2="180" y2="86" stroke="#C9B29A" stroke-width="5"/>
  </g>
</svg>
